<svg id="Capa_1" enable-background="new 0 0 510.217 510.217" height="512" viewBox="0 0 510.217 510.217" width="512" xmlns="http://www.w3.org/2000/svg"><g id="XMLID_146_"><path id="XMLID_1179_" d="m240.275 85c0-46.869-38.131-85-85-85s-85 38.131-85 85 38.131 85 85 85z" fill="#ffb64c"/><path id="XMLID_1183_" d="m235.942 347.667h30v147.55h-30z" fill="#75e2f8"/><g fill="#00cef5"><path id="XMLID_372_" d="m250.942 347.667h15v147.55h-15z"/><path id="XMLID_1181_" d="m155.275 480.217h191.334v30h-191.334z"/><path id="XMLID_1184_" d="m317.052 90.088-28.22-10.176 28.573-79.245h122.537v30h-101.463z"/></g><path id="XMLID_1192_" d="m140.275 70v182c0 61.021 49.645 110.667 110.667 110.667s110.667-49.646 110.667-110.667v-182z" fill="#ff9468"/><path id="XMLID_377_" d="m250.942 70v292.667c61.022 0 110.667-49.645 110.667-110.667v-182z" fill="#ff5b5b"/><path id="XMLID_1219_" d="m361.612 245.096v6.9c0 8.48-.96 16.74-2.78 24.68-11.44 2.52-25.86 4.7-41.45 4.7-24.7 0-52.34-5.48-75.7-23.81-23.17-18.18-48.82-26.38-76.27-24.37-10.26.75-18.94 2.86-25.14 4.82v-31.12c6.21-1.51 13.44-2.82 21.42-3.5 24.54-2.06 61.54 1.56 98.51 30.57 32.71 25.67 79.76 17.091 101.41 11.13z" fill="#ff5b5b"/><path id="XMLID_382_" d="m260.202 233.967c-3.089-2.424-6.178-4.655-9.26-6.736v36.813c21.198 13.175 44.933 17.333 66.44 17.333 15.59 0 30.01-2.18 41.45-4.7 1.82-7.94 2.78-16.2 2.78-24.68v-6.9c-21.65 5.96-68.7 14.539-101.41-11.13z" fill="#ff193d"/><path id="XMLID_531_" d="m250.942 480.217h95.667v30h-95.667z" fill="#00aadf"/></g></svg>